<?xml version="1.0" encoding="utf-8"?>
<!-- Generator: Adobe Illustrator 26.4.1, SVG Export Plug-In . SVG Version: 6.00 Build 0)  -->
<svg version="1.1" id="Capa_1" xmlns="http://www.w3.org/2000/svg" xmlns:xlink="http://www.w3.org/1999/xlink" x="0px" y="0px"
	 viewBox="0 0 800 800" style="enable-background:new 0 0 800 800;" xml:space="preserve">
<style type="text/css">
	.st0{fill:#21502D;}
	.st1{fill:#EA5B2E;}
	.st2{fill:#FEDDAC;}
	.st3{fill:#478A52;}
	.st4{fill:#FEEAC9;}
	.st5{fill:#DEF8CD;}
	.st6{fill:#FDFDEF;}
	.st7{fill:#185229;}
	.st8{fill:#E95722;}
	.st9{fill:#E95621;}
	.st10{fill:#175129;}
	.st11{fill:#19522B;}
	.st12{fill:#19522A;}
	.st13{fill:#19512A;}
	.st14{fill:#17512A;}
	.st15{fill:#55A03A;}
	.st16{fill:#146529;}
	.st17{fill:#C9DFC4;}
	.st18{fill:#FEAB32;}
	.st19{fill:#136125;}
	.st20{fill:#FED68C;}
	.st21{fill:#256033;}
</style>
<path class="st0" d="M482.79,737.46c-7.62-9.82-14.18-20.16-14.34-33.14c-0.18-14.81,7.57-24.57,20.44-30.75
	c6.64-3.19,7.89-8.01,3.24-14.02c-4.93-6.35-10.3-12.34-14.81-19.04c-15.65-23.24-23.01-49.16-25.33-76.8
	c-2.97-35.48,4.67-68.79,20.22-100.54c0.77-1.58,2.97-3.47,0.36-5.3c-2.92-2.05-7.13-1.7-8.75,0.87
	c-3.85,6.12-7.25,12.49-10.31,19.05c-7.62,16.36-13.52,33.34-18.43,50.68c-2.23,7.88-3.57,8.76-11.81,8.82
	c-21.67,0.14-43.3-0.96-64.92-2.31c-8.29-0.52-16.61-0.68-24.86-1.72c-6.58-0.82-8.15-3.12-6.9-9.72
	c2.97-15.76,8.61-30.68,14.29-45.6c2.31-6.08,4.72-12.13,6.98-18.71c-4.69,0.46-7.94,2.15-10.04,5.96
	c-17.69,31.97-31.77,65.47-42.47,100.39c-3.84,12.52-7.5,25.08-8.62,38.23c-0.21,2.45-0.38,4.89-0.38,7.34
	c0,15.82,0.08,31.63-0.02,47.45c-0.15,24.56-4.27,48.55-10.65,72.2"/>
<path class="st0" d="M272.49,738.68c-9.04-3.04-8.97-3.02-6.85-12.35c6.63-29.1,9.78-58.51,8.22-88.39
	c-0.39-7.48-0.06-14.99-0.06-22.98c-7.45,4.38-14.3,8.64-21.37,12.51c-17.42,9.56-35.24,18.26-54.89,22.33
	c-19.73,4.08-38.56,2.67-55.02-10.36c-12.32-9.75-18.38-23.33-22.02-38.15c-5.09-20.69-5.61-41.79-5.11-62.94
	c0.13-5.58,0.35-11.18,0.84-16.74c0.73-8.35-2.07-16.14-3.49-24.14c-5.48-30.87,5.1-55.73,28.59-75.4
	c10.38-8.7,22.55-11.15,35.54-5.83c1.88,0.77,2.17,0.32,2.74-1.3c1.45-4.09,2.89-8.22,4.8-12.11c1.39-2.83,0.84-3.94-1.96-5.28
	c-20.14-9.66-32.96-25.31-37.96-47.19c-8.89-38.91,19.63-79.29,59.4-84.12c43.13-5.25,80.23,29.37,77.95,72.76
	c-1.91,36.43-32.38,65.02-69.82,64.81c-6.9-0.04-11.46,0.79-13.3,8.2c-0.76,3.07-2.74,5.93-4.54,8.63c-2.36,3.54-2.67,6.4,0.3,10.01
	c1.71,2.08,2.52,2.8,5.33,2.12c10.8-2.62,19.22,4.05,19.79,15.2c0.71,14-5.61,24.66-16,33.24c-3.02,2.49-4.88,5.2-5.14,9.18
	c-0.74,11-2.76,21.9-1.93,33.01c0.51,6.9,2.06,13.58,3.72,20.78c5.16-5.54,9.98-10.83,14.93-15.99
	c16.72-17.46,34.85-33.35,54.09-47.98c2.37-1.8,3.31-3.36,2.89-6.64c-1.43-11.19,1.86-21.86,4.81-32.47
	c2.95-10.59,6.26-21.09,10.12-31.4c0.57-1.53,0.99-2.89,0.09-4.59c-8.21-15.34-7.92-31.63-5.17-48.17
	c2.28-13.69,6.07-27.02,9.83-40.36c0.37-1.3,0.93-2.46-0.03-3.85c-8.97-12.98-7.71-27.06-4-41.22c6.78-25.85,24.1-42.23,48.02-52.4
	c2.28-0.97,3.69-2.16,4.84-4.37c4.32-8.32,8.87-16.52,13.42-24.72c0.9-1.63,1.14-2.97,0.64-4.92c-10.86-41.8,9.73-76.76,42.51-92.25
	c31.1-14.69,72.41-6.46,95.87,18.06c5.89,6.16,10.59,13.21,13.36,21.27c1.07,3.12,2.24,3.69,5.32,3.23
	c24.39-3.6,46.17,2.26,64.88,18.55c32.16,27.99,30.51,78.68-3.28,102.62c-9.25,6.55-19.57,9.96-30.81,10.59
	c-2.21,0.12-3.43,0.83-4.43,2.74c-2.47,4.69-5.14,9.27-7.7,13.91c-0.56,1.02-1.2,1.82-0.26,3.28
	c10.64,16.43,16.46,34.76,20.71,53.66c3.76,16.69,5.48,33.81,10.76,50.19c3.96,12.27,10.17,23.38,16.77,34.33
	c8.9,14.79,18.03,29.45,22.75,46.3c5.09,18.18,6.84,36.38,0.11,54.53c-0.85,2.28,0.53,3,1.53,4.06c8.51,9.03,17.21,17.87,25.6,27.01
	c9.32,10.15,18.17,20.72,24.45,33.09c11.75,23.15,8.72,45.01-6.57,65.43c-12.55,16.75-29.1,28.89-46.78,39.65
	c-12.09,7.36-24.71,13.71-37.39,19.95c-1.62,0.8-3,1.66-4.1,3.17c-3.8,5.21-8.18,9.87-13.94,12.97c-1.31,0.71-1.45,1.52-1.46,2.89
	c-0.12,13.37-8.53,21.76-21.89,22.27c-13.68,0.52-24.79-4.99-34.45-14.16c-1.25-0.51-2.62-0.84-3.51-1.99
	c-7.62-9.82-14.18-20.16-14.34-33.14c-0.18-14.81,7.57-24.57,20.44-30.75c6.64-3.19,7.89-8.01,3.24-14.02
	c-4.93-6.35-10.3-12.34-14.81-19.04c-15.65-23.24-23.01-49.16-25.33-76.8c-2.97-35.48,4.67-68.79,20.22-100.54
	c0.77-1.58,2.97-3.47,0.36-5.3c-2.92-2.05-7.13-1.7-8.75,0.87c-3.85,6.12-7.25,12.49-10.31,19.05
	c-7.62,16.36-13.52,33.34-18.43,50.68c-2.23,7.88-3.57,8.76-11.81,8.82c-21.67,0.14-43.3-0.96-64.92-2.31
	c-8.29-0.52-16.61-0.68-24.86-1.72c-6.58-0.82-8.15-3.12-6.9-9.72c2.97-15.76,8.61-30.68,14.29-45.6
	c2.31-6.08,4.72-12.13,6.98-18.71c-4.69,0.46-7.94,2.15-10.04,5.96c-17.69,31.97-31.77,65.47-42.47,100.39
	c-3.84,12.52-7.5,25.08-8.62,38.23c-0.21,2.45-0.38,4.89-0.38,7.34c0,15.82,0.08,31.63-0.02,47.45
	c-0.15,24.56-4.27,48.55-10.65,72.2C275.16,735.73,274.84,737.9,272.49,738.68z"/>
<path class="st0" d="M265.64,723.32c6.63-29.1,9.78-58.51,8.22-88.39c-0.39-7.48-0.06-14.99-0.06-22.98
	c-7.45,4.38-14.3,8.64-21.37,12.51c-17.42,9.56-35.24,18.26-54.89,22.33c-19.73,4.08-38.56,2.67-55.02-10.36
	c-12.32-9.75-18.38-23.33-22.02-38.15c-5.09-20.69-5.61-41.79-5.11-62.94c0.13-5.58,0.35-11.18,0.84-16.74
	c0.73-8.35-2.07-16.14-3.49-24.14c-5.48-30.87,5.1-55.73,28.59-75.4c10.38-8.7,22.55-11.15,35.54-5.83c1.88,0.77,2.17,0.32,2.74-1.3
	c1.45-4.09,2.89-8.22,4.8-12.11c1.39-2.83,0.84-3.94-1.96-5.28c-20.14-9.66-32.96-25.31-37.96-47.19
	c-8.89-38.91,19.63-79.29,59.4-84.12c43.13-5.25,80.23,29.37,77.95,72.76c-1.91,36.43-32.38,65.02-69.82,64.81
	c-6.9-0.04-11.46,0.79-13.3,8.2c-0.76,3.07-2.74,5.93-4.54,8.63c-2.36,3.54-2.67,6.4,0.3,10.01c1.71,2.08,2.52,2.8,5.33,2.12
	c10.8-2.62,19.22,4.05,19.79,15.2c0.71,14-5.61,24.66-16,33.24c-3.02,2.49-4.88,5.2-5.14,9.18c-0.74,11-2.76,21.9-1.93,33.01
	c0.51,6.9,2.06,13.58,3.72,20.78c5.16-5.54,9.98-10.83,14.93-15.99c16.72-17.46,34.85-33.35,54.09-47.98
	c2.37-1.8,3.31-3.36,2.89-6.64c-1.43-11.19,1.86-21.86,4.81-32.47c2.95-10.59,6.26-21.09,10.12-31.4c0.57-1.53,0.99-2.89,0.09-4.59
	c-8.21-15.34-7.92-31.63-5.17-48.17c2.28-13.69,6.07-27.02,9.83-40.36c0.37-1.3,0.93-2.46-0.03-3.85c-8.97-12.98-7.71-27.06-4-41.22
	c6.78-25.85,24.1-42.23,48.02-52.4c2.28-0.97,3.69-2.16,4.84-4.37c4.32-8.32,8.87-16.52,13.42-24.72c0.9-1.63,1.14-2.97,0.64-4.92
	c-10.86-41.8,9.73-76.76,42.51-92.25c31.1-14.69,72.41-6.46,95.87,18.06c5.89,6.16,10.59,13.21,13.36,21.27
	c1.07,3.12,2.24,3.69,5.32,3.23c24.39-3.6,46.17,2.26,64.88,18.55c32.16,27.99,30.51,78.68-3.28,102.62
	c-9.25,6.55-19.57,9.96-30.81,10.59c-2.21,0.12-3.43,0.83-4.43,2.74c-2.47,4.69-5.14,9.27-7.7,13.91c-0.56,1.02-1.2,1.82-0.26,3.28
	c10.64,16.43,16.46,34.76,20.71,53.66c3.76,16.69,5.48,33.81,10.76,50.19c3.96,12.27,10.17,23.38,16.77,34.33
	c8.9,14.79,18.03,29.45,22.75,46.3c5.09,18.18,6.84,36.38,0.11,54.53c-0.85,2.28,0.53,3,1.53,4.06c8.51,9.03,17.21,17.87,25.6,27.01
	c9.32,10.15,18.17,20.72,24.45,33.09c11.75,23.15,8.72,45.01-6.57,65.43c-12.55,16.75-29.1,28.89-46.78,39.65
	c-12.09,7.36-24.71,13.71-37.39,19.95"/>
<path class="st1" d="M272.49,735.67c3.81-9.66,5.49-19.86,7.52-29.96c4.61-22.95,6.23-46.21,4.82-69.51
	c-1.83-30.37,4.24-59.17,14.37-87.51c9.82-27.43,21.3-54.07,34.86-79.87c3.63-6.91,8.18-11.17,16.02-11.98
	c0.81,0.81-0.2,1.58-0.49,2.37c-7.57,20.07-16.06,39.81-20.88,60.82c-2.51,10.94-2.21,11.69,8.9,12.38
	c29.1,1.8,58.21,3.55,87.39,3.6c6.1,0.01,6.32-0.08,8.1-6.25c6.57-22.76,14.35-45.04,25.99-65.8c0.33-0.59,0.62-1.21,0.98-1.79
	c5.79-9.29,2.4-8.09,13.69-5.77c2.84,0.58,2.87,1.48,1.7,3.74c-7.52,14.53-13.75,29.58-17.4,45.58
	c-10.26,44.94-6.3,88.07,16.95,128.59c5.11,8.9,11.61,16.85,18.56,24.32c3.64,3.92,1.62,8.56,3.03,12.69
	c0.47,1.38-1.82,1.31-2.83,1.67c-9.2,3.29-16.68,8.62-21.07,17.58c-4.06,8.29-3.81,16.8-0.8,25.37"/>
<path class="st1" d="M714.74,451.71c15.18,4.92,25.68,14.67,29.71,30.29c3.86,14.95,0.59,28.52-10.63,39.39
	c-26.5,25.65-68.72,24.08-93.11-7.06c-14.31-18.26-12.24-44.73,3.3-59.79c6.35-6.16,14.22-8.88,22.84-9.56
	c5.83-0.46,11.68-0.28,17.5,0.52c1.91,1.16,1.14,2.08-0.32,2.79c-1.24,0.6-2.66,0.53-4,0.76c-3.95,0.67-7.72,1.78-10.73,4.62
	c-1.1,1.04-2.25,2.26-1.71,3.89c0.56,1.68,2.3,1.93,3.76,1.9c3.4-0.07,6.81-0.23,10.19-0.64c5.31-0.65,6.18,0.24,5.45,5.42
	c-0.17,1.21-0.44,2.42-0.42,3.65c0.03,2.22,0.05,4.65,2.72,5.34c2.64,0.69,3.94-1.28,4.94-3.32c0.97-1.95,1.87-3.95,2.67-5.97
	c1.22-3.06,3.36-3.99,6.52-3.35c3.9,0.79,7.62,2.09,11.32,3.47c1.53,0.57,3.04,1.26,4.7,1.33c2.1,0.08,3.76-0.85,4.63-2.75
	c0.89-1.95-0.24-3.39-1.66-4.61c-1.35-1.16-2.93-1.99-4.45-2.9C716.57,454.31,715.01,453.61,714.74,451.71z"/>
<path class="st0" d="M714.74,451.71c2.83,1.62,5.72,3.15,8.47,4.9c2.51,1.6,4.16,4.02,2.62,6.9c-1.52,2.83-4.3,4.21-7.63,3.18
	c-5.18-1.61-10.18-3.74-15.51-4.95c-2.33-0.53-3.5-0.07-4.33,2.15c-0.99,2.67-2.2,5.27-3.41,7.85c-1.14,2.42-3.02,4.06-5.81,3.47
	c-2.79-0.6-3.72-2.95-4-5.54c-0.25-2.33,0.09-4.64,0.76-6.86c0.75-2.51,0.12-3.38-2.6-2.94c-3.22,0.53-6.49,0.77-9.74,1.02
	c-1.34,0.11-2.74,0.1-4.06-0.13c-4.18-0.73-5.21-3.36-2.59-6.65c3.89-4.88,9.42-6.13,15.24-6.65c2.16-0.19,2.16-0.16,2.2-1.95
	c-1.09-5.74-3.16-11.2-4.85-16.77c-0.84-2.77-1.18-5.56,1.9-7.1c3.08-1.54,5.19,0.45,6.89,2.73c4.49,6.01,6.9,13.05,9.65,20.14
	c3.23-2.37,6.25-4.63,9.31-6.84c1.99-1.44,4.15-2.67,6.54-3.21c2.25-0.5,4.72-0.87,6.33,1.45c1.71,2.45,0.63,4.75-0.97,6.7
	c-1.37,1.67-3.05,3.09-4.66,4.55c-1.1,1-2.31,1.86-3.89,3.12C712.18,450.83,713.46,451.27,714.74,451.71z"/>
<path class="st2" d="M447.78,313.66"/>
<path class="st2" d="M479.63,334.16c0.53,0.8,1.44,1.87,2.81,2.21c1.67,0.42,3.19-0.46,3.66-0.68c6.6-3.22,13.56-4.65,20.94-2.42
	c17.7,5.35,23.77,27.16,11.33,42.24c-9.51,11.52-22.09,15.4-36.6,12.18c-3.65-0.81-5.7-0.09-7.11,3.15
	c-0.33,0.75-0.78,1.44-1.06,2.2c-7.33,19.57-21.63,32.31-40.3,40.47c-41.95,18.33-81.44,13.5-117.97-13.78
	c-13.56-10.13-22.11-23.93-24.3-41.04c-1.49-11.65,0.54-23.1,3.15-34.39c5.07-21.96,11.28-43.61,17.81-65.18
	c0.98-3.24,2.45-4.88,6.08-5.07c19.31-0.97,87.38,3.02,87.73-11.25c-0.27,11.01,12.5,21.86,23.5,34.02
	C447.27,316.72,466.66,328,479.63,334.16z"/>
<path class="st3" d="M357.49,208.82c3.45-6.68,6.44-13.07,10.92-18.53c1.84-2.25,5.01-1.97,7.64-2.09
	c28.69-1.35,56.31,3.72,83.14,13.77c10.98,4.12,21.67,8.87,32.19,14.02c0.78,0.38,1.51,1.26,2.86,0.61
	c-7.28-7.18-15.27-13.18-24.07-18.07c-20.04-11.12-41.64-17.13-64.36-19.51c-11.66-1.22-23.3-1.54-34.94-0.1
	c-2.26,0.28-2.33-1.05-2.73-2.56c-3.51-13.3-1.99-26.26,3.45-38.61c9.39-21.31,24.93-35.88,48.57-39.15
	c25.7-3.55,52.87,4.22,68.24,27.41c3.93,5.93,5.83,12.53,5.99,19.64c0.02,0.95,0.02,1.91,0.06,2.86c0.27,5.52,0.68,5.76,5.51,3.25
	c20.07-10.42,48.48-6.57,65.32,8.57c10.16,9.14,17.23,19.95,19.53,33.54c5.38,31.78-19.78,56.06-44.94,55.44
	c-6.52-0.16-10.74,1.46-13.64,7.42c-2.26,4.62-5.5,8.75-8.07,13.24c-1.18,2.07-1.89,2.48-3.82,0.7
	c-25.34-23.31-54.77-39.75-87.15-50.99C404.84,211.92,381.84,207.61,357.49,208.82z"/>
<path class="st2" d="M138.97,490.51c-2.27,7.05-2.83,13.66,0.23,20.17c3.59,7.65,11.17,9.15,17.33,3.42
	c4.14-3.85,7.12-8.58,9.57-13.62c0.81-1.66,1.69-2.3,3.6-2.54c9.23-1.14,14.2-6.67,14.52-16.11c0.07-1.99,0.75-3.13,2.24-4.36
	c4.49-3.72,7.47-8.29,6.86-14.47c-0.13-1.35,0.44-2.27,1.22-3.29c4.09-5.31,5.77-11.36,4.94-18c-0.22-1.76-0.1-2.36,1.83-2.49
	c4.67-0.32,7.33,1.76,7.49,6.45c0.36,10.55-3.93,19.35-11.93,25.71c-6.87,5.46-9.8,11.78-9.49,20.38c0.17,4.71-1.14,9.45-1.47,14.19
	c-0.93,13.15,0.62,26.05,3.88,38.83c3.48,13.67,7.83,27.19,8.23,41.48c0.08,2.93,1.36,5.14,4.54,5.22c3.28,0.08,4.28-2.39,4.76-5.11
	c1.7-9.61-0.02-18.97-2.08-28.31c-0.4-1.83-0.78-3.67-1.26-5.94c16.46,10.88,26.68,25.52,30.97,44.3c1.58,6.93,2.06,13.99,2.4,21.07
	c0.07,1.54,0.04,2.74-1.76,3.61c-13.58,6.57-27.18,13.18-42.18,15.85c-16.74,2.99-32.65,1.42-46.04-10.43
	c-8.92-7.89-12.89-18.65-16.23-29.65c-5.62-18.49-6.19-37.53-5.92-56.63c0.09-6.4,0.26-12.82,0.85-19.19
	c0.84-9.02-1.09-17.64-3.41-26.16c-8.32-30.57,10.73-57.56,26.96-69.2c14.19-10.18,34.49-2.63,39.07,14.03
	c0.74,2.69,0.49,5.32,0.33,8.79c-3.59-3.79-6.7-7.1-10.43-9.71c-4.72-3.3-9.7-6.02-15.32-7.4c-3.12-0.77-6.15-0.74-7.56,2.81
	c-1.19,2.98,0.62,5.49,4.57,6.83c7.62,2.58,14.41,6.44,19.4,12.92c4.51,5.85,4.7,10.6,0.66,15.53
	c-6.62-9.43-15.69-15.28-26.65-18.37c-1.87-0.53-3.73-0.71-5.65-0.49c-2.33,0.27-3.71,1.52-4.02,3.88
	c-0.32,2.46,0.47,4.39,2.94,5.14c3.77,1.14,7.49,2.4,11.05,4.12c6.01,2.91,11.13,6.84,14.47,12.75c1.36,2.41,2.15,4.98,1.2,7.82
	c-0.63,1.89-1.87,2.88-3.78,3.26c-2.14,0.42-2.25-1.37-3.05-2.55c-5.95-8.75-14.89-11.85-24.85-12.66c-2.48-0.2-4.91,0.96-5.21,4.08
	c-0.31,3.26,1.71,4.68,4.52,5.27c4.41,0.93,8.68,2.23,12.64,4.43c2.22,1.24,3.99,2.95,4.66,5.44c0.84,3.08-1.99,5.89-5.12,5.26
	C148.3,495.84,143.41,494.04,138.97,490.51z"/>
<path class="st4" d="M496.56,646.02c-7.8-9.01-13.93-18.18-18.49-28.36c-11.26-25.18-15.8-51.54-14.16-79.09
	c1.6-26.96,9.59-51.92,22.09-75.66c1.26-2.39,2.35-2.45,4.71-1.75c31.77,9.44,58.68,26.82,82.04,49.98
	c11.21,11.12,22.1,22.56,33.11,33.83c-24.15,16.23-45.69,34.7-62.71,58.41c4.6,4.44-22.67-21.89-38.97-37.63
	c-1.96-1.89-3.8-3.94-5.9-5.66c-2.53-2.07-5.4-2.23-7.68,0.27c-2.17,2.38-1.7,5.08,0.5,7.3c3.93,3.97,7.91,7.9,11.98,11.73
	c1.52,1.43,2.13,2.9,1.96,4.99c-0.75,9.1-2.68,18.02-4.09,27.01C499.19,622.62,497.43,633.85,496.56,646.02z"/>
<path class="st5" d="M267.19,332.75c-0.4,30.76-25.95,54.61-58.05,54.19c-29.96-0.39-52.31-24.34-51.83-55.54
	c0.46-30.11,25.9-54.8,55.95-54.32C243.34,277.57,267.57,302.59,267.19,332.75z"/>
<path class="st4" d="M327.34,458.82c-20.7,36.98-36.53,75.38-47.67,115.7c-1.88,6.81-3.51,13.67-4.63,20.65
	c-0.22,1.38-0.52,2.67-1.7,3.57c-8.08,6.17-16.64,11.57-25.83,16.76c-0.72-12.31-2.44-23.94-7.06-34.93
	c-5.86-13.95-14.65-25.69-26.78-34.84c-1.58-1.19-3.06-1.86-0.87-4.18c26.13-27.8,54.53-52.84,87.56-72.23
	C308.55,464.5,317.33,460.88,327.34,458.82z"/>
<path class="st2" d="M386.2,496.1c-11.41-0.46-22.41-2.3-32.31-8.55c-2.16-1.36-3.06-2.34-1.94-5.06
	c3.62-8.77,6.94-17.67,10.28-26.55c0.71-1.89,1.31-2.64,3.72-2.28c28.61,4.3,55.78,0.1,81-14.54c2.48-1.44,3.07-1.04,3.54,1.53
	c0.7,3.87,1.59,7.7,2.57,11.51c0.28,1.07,0.14,1.87-0.42,2.66c-6.9,9.78-13.34,19.93-22.7,27.69
	C417.2,493.05,402.32,496.57,386.2,496.1z"/>
<path class="st4" d="M347,495.03c26.01,17.09,69.89,14.94,91.06-7.89c-4.41,10.33-8.04,19.97-11.08,29.83
	c-0.93,3.04-0.58,7.32-3.15,8.79c-2.35,1.34-6.1,0.34-9.23,0.2c-23.8-1.12-47.59-2.33-71.39-3.37c-3.88-0.17-4.72-1.36-3.43-5.04
	C342.37,510.15,344.59,502.62,347,495.03z"/>
<path class="st6" d="M182.54,303.71c1.25-0.15,1.88,0.53,1.45,1.66c-0.42,1.11-1.16,2.14-1.87,3.11
	c-9.03,12.27-10.08,25.44-4.3,39.29c1.3,3.12,3.05,6.05,4.64,9.04c0.44,0.83,1.32,1.64,0.52,2.54c-0.87,0.97-2.07,0.61-3,0.01
	c-3.48-2.23-6.51-4.95-8.16-8.85c-6.19-14.68-5.93-28.81,3.9-41.98C177.42,306.25,179.39,304.09,182.54,303.71z"/>
<path class="st7" d="M409.01,389.09c-2.42-2.24-3.77,0.64-5.53,2.08c-14.09,11.53-29.72,15.41-47.29,9.43
	c-1.79-0.61-3.57-1.39-5.16-2.4c-1.55-0.98-2.69-2.46-1.67-4.48c1.04-2.08,2.65-2.37,4.79-1.54c8.48,3.29,17.24,3.68,26.09,1.96
	c7.18-1.39,13.52-4.83,19.72-8.55c1.3-0.78,1.82-1.36,0.67-2.75c-1.13-1.37-1.4-2.98,0-4.43c1.35-1.39,2.99-1.25,4.54-0.53
	c2.99,1.38,5.68,3.22,7.61,5.98c0.84,1.2,1.16,2.48,0.27,3.8C412.23,388.86,411.11,389.54,409.01,389.09z"/>
<path class="st8" d="M433.95,363.04c5.2,0.32,10.4,0.76,13.06,6.33c1.79,3.74,0.38,8.24-3.35,10.11
	c-6.05,3.04-12.31,3.02-18.45,0.31c-3.2-1.42-5.18-4.1-4.98-7.71c0.21-3.89,2.51-6.56,6.11-7.87
	C428.74,363.32,431.29,362.78,433.95,363.04z"/>
<path class="st9" d="M319.06,377.83c-2.86,0.08-5.16,0.05-7.36-0.85c-3.72-1.53-6.14-4.13-6.11-8.29c0.04-4.08,2.77-6.57,6.21-7.8
	c5.26-1.88,10.66-1.76,15.9,0.52c3.36,1.46,5.01,3.85,4.94,7.63c-0.06,3.64-1.85,5.78-4.98,7.21
	C324.74,377.6,321.71,378.12,319.06,377.83z"/>
<path class="st10" d="M370.69,375.38c-3-0.16-5.95-0.68-8.72-1.8c-6.96-2.82-9.65-8.65-7.37-15.87c2.09-6.61,6.13-12.04,10.68-17.13
	c1.31-1.47,3.04-2.11,4.72-0.9c1.91,1.38,1.46,3.39,0.45,5.12c-2.12,3.63-4.45,7.15-5.95,11.11c-2.58,6.81-0.25,11.8,6.37,13.66
	c1.43,0.4,2.87,0.78,4.32-0.14c1.52-0.97,2.95-0.83,3.61,1.02c0.61,1.69-0.35,2.97-1.78,3.65
	C375.06,375.02,372.91,375.43,370.69,375.38z"/>
<path class="st11" d="M420.28,351.27c-0.12,3.35-1.47,7.31-5.84,9.58c-2.44,1.26-4.81,0.88-6.73-1.01
	c-3.48-3.42-4.52-7.57-3.14-12.28c1.5-5.14,5.58-8.9,9.12-8.4C417.54,339.7,420.31,344.26,420.28,351.27z"/>
<path class="st12" d="M333.87,346.76c0.1-1.01,0.14-1.97,0.28-2.9c0.8-5.14,4.77-8.94,9.11-8.76c3.8,0.16,6.55,3.66,6.97,9.11
	c0.22,2.89-0.32,5.72-1.9,8.17c-1.81,2.8-4.12,5.56-7.8,4.74c-3.72-0.83-5.79-3.79-6.42-7.6
	C333.95,348.59,333.94,347.64,333.87,346.76z"/>
<path class="st5" d="M515.04,591.12c8.11,7.59,15.74,14.74,23.38,21.87c2.69,2.51,5.46,4.92,8.72,6.7c3.65,1.99,7.38,2.97,11.1,0.28
	c2.37-1.72,2.64,0.96,3.74,1.72c1.73,1.21,0.16,1.96-0.66,2.74c-14.01,13.34-27.51,27.21-41.73,40.35c-2.96,2.73-6.46,2.58-9.8,3.36
	c-1.46,0.34-0.92-1.56-1.22-2.45c-3.8-11.31-1.2-22.65,0.21-33.89C510.47,618.44,512.85,605.18,515.04,591.12z"/>
<path class="st13" d="M431.83,328.34c0.1,1.59-0.86,2.49-2.09,3.22c-1.42,0.84-2.72,0.33-3.72-0.65c-1.15-1.13-1.98-2.57-3.07-3.76
	c-4.18-4.58-9.5-4.01-14.8-3.04c-1.89,0.34-3.75,0.82-5.63,0.41c-1.54-0.33-2.69-1.3-2.89-3.02c-0.2-1.65,0.27-3.07,1.93-3.63
	c8.22-2.75,20.27-3.54,27.35,4.35C430.77,324.28,431.88,326.53,431.83,328.34z"/>
<path class="st14" d="M352.46,321.23c-2.89-0.53-5.57-1.54-8.48-1.68c-4.28-0.21-8.11,0.69-11.29,3.7c-1.8,1.7-3.82,2.42-5.73,0.46
	c-1.87-1.92-1.12-4.05,0.39-5.86c4.96-5.95,11.51-7.42,18.79-6.22c2.66,0.44,5.22,1.5,7.81,2.32c1.96,0.62,2.95,1.95,2.53,4.03
	C356.03,320.15,354.53,321.12,352.46,321.23z"/>
<path class="st10" d="M479.01,373.86c0.29-1.65,1.2-3,2.21-4.28c3.28-4.15,7.57-6.94,12.27-9.19c1.88-0.9,3.88-1.16,5.03,0.84
	c1.23,2.13,0.22,3.96-1.85,5.07c-4.51,2.42-8.23,5.7-11.21,9.86c-1.14,1.59-2.74,2.32-4.62,1.44
	C479.35,376.88,478.72,375.55,479.01,373.86z"/>
<path class="st15" d="M585.68,304.63c0.98-6.56,7.2-11.68,14.61-11.9c3.74-0.11,7.48-0.02,11.38-0.02c-1.9-2.96-4-5.93-5.78-9.08
	c-7.1-12.55-1.73-22.13,12.71-22.83c12.01-0.58,17.79,4.49,18.65,16.48c0.17,2.37,0.02,4.77,0.02,8.02c2.5-1.84,3.09-3.82,4.05-5.47
	c3-5.12,6.62-9.66,11.68-12.89c4.36-2.78,9.05-3.56,14.08-2.19c4.78,1.3,7.9,4.27,8.84,9.14c1.74,9.01,0.36,17.38-5.97,24.4
	c-4.42,4.9-10.09,7.27-16.68,7.39c-3.67,0.06-7.35,0.06-11.02,0.09c-0.71-6.37,2.77-11.08,6.38-15.65c2.05-2.6,4.78-4.62,6.76-7.3
	c-7.97,3.72-11.62,10.9-14.73,18.5c-0.66,1.62-0.82,3.45-1.96,4.89c-0.97,1.02-1.84,2.2-3.42,2.3c-1.75-0.75-1.91-2.53-2.53-3.99
	c-2.2-5.2-4.36-10.41-8.15-15.45c-0.67,2.32,0.38,3.5,1.01,4.74c2.17,4.24,4.26,8.52,6.02,12.95c0.62,1.55,1.17,3.18-0.25,4.56
	c-1.48,1.44-3.1,0.64-4.54-0.1c-5.38-2.77-11.03-4.65-17.04-5.39c-1.18-0.14-2.39-0.67-3.76,0.31c0.92,1.1,2.16,0.87,3.25,0.98
	c4.36,0.46,8.59,1.46,12.59,3.28c1.7,0.77,3.6,1.45,4.05,3.66c-3.76,4.74-9.39,5.2-14.68,6.07c-4.95,0.81-10.03,1.22-14.96-0.46
	C589.16,317.27,584.74,310.98,585.68,304.63"/>
<path class="st16" d="M625.92,314.08c-5.38-3.83-11.46-5.49-17.97-5.82c-1.69-0.09-4.21,0.39-3.97-2.17
	c0.26-2.74,2.89-1.92,4.64-1.68c6.63,0.91,13.05,2.58,18.96,5.87c0.99,0.55,2.1,1.74,3.31,0.68c1.38-1.21,0.24-2.54-0.27-3.71
	c-2.23-5.11-4.36-10.27-7.31-15.03c-0.14-0.23-0.33-0.45-0.41-0.7c-0.49-1.45-1.03-3.13,0.69-3.96c1.64-0.79,2.38,0.82,3.04,1.96
	c2.89,4.93,5.48,10.02,7.46,15.39c0.42,1.14,0.91,2.25,1.37,3.37c0.67,0.28,1.69,2.17,1.73-0.41c0.01-0.66,0.42-1.27,0.8-1.83
	c1.76-6.15,4.25-11.94,8.06-17.16c2.3-3.15,5.32-5.35,8.52-7.41c1-0.64,1.94-1.14,2.75,0.16c0.75,1.21,0.1,2.07-0.86,2.74
	c-7.6,5.25-12.29,12.43-14.22,21.43c-2.12,8.66-0.44,16.92,2.35,25.29c1.92-1.44,2.54-3.22,3.34-4.95c2.35-5.01,6.37-7.15,11.55-6.4
	c3.13,0.45,4.31,1.89,3.04,5.03c-1.76,4.35-7.76,8.68-12.39,8.79c-2.73,0.06-4.18,2.07-3.29,4.68c0.52,1.54,1.24,3.02,1.77,4.56
	c0.57,1.66,0.09,3.01-1.6,3.66c-1.77,0.68-2.44-0.63-3-1.92c-0.33-0.74-0.68-1.52-0.77-2.32c-0.69-6.1-4.32-9.07-10.12-10.3
	c-2.66-0.56-4.76-0.99-7.12,1.04c-3.21,2.75-7.32,2.72-11.3,2.2c-2.08-0.27-4.01-1.29-4.53-3.57c-0.51-2.19,0.59-3.99,2.17-5.43
	c4.83-4.39,11.62-4.22,17.1-0.38c2.62,1.84,6.1,2.46,9.73,3.84C637.06,321.87,632.49,317.12,625.92,314.08z"/>
<path class="st17" d="M638,306.02c0,2.34,0,4.69,0,7.03c-0.38,0.06-0.75,0.11-1.13,0.17c-0.47-1.65-0.93-3.3-1.4-4.95
	C635.76,306.89,636.96,306.55,638,306.02z"/>
<path class="st18" d="M315.98,128.69c-6.78,5.53-5.95,12.71-3.94,19.86c1.96,7.01,3.66,13.99,2.5,21.29
	c-2.15,13.53-13.27,24.52-27.48,27.32c-26.76,5.28-51.96-21.46-45.12-47.87c3.82-14.75,17.53-24.38,32.76-23.37
	c5.1,0.34,10.17,1.9,15.4,0.4c4.41-1.27,7.69-3.66,9.01-8.02c0.92-3.03,2-1.89,3.26-0.56c2.24,2.38,4.46,4.78,6.55,7.28
	c0.77,0.92,1.31,1.3,2.24,0.39C314.18,124.4,315.73,125.57,315.98,128.69z"/>
<path class="st19" d="M315.98,128.69c-1.01-1.98-2.53-3.2-4.83-3.27c4.44-4.34,10.27-5.32,15.71-2.62c1.34,0.66,2.93,1.32,2.19,3.27
	c-0.67,1.73-1.98,1.93-3.67,1.22C322,125.89,319.01,127.58,315.98,128.69z"/>
<path class="st20" d="M252.97,173.43c-4.74-8.94-1.37-23.13,6.74-30.81c8.96-8.49,20.24-12.22,28.71-7.94
	C267.21,139.47,256.13,152.87,252.97,173.43z"/>
<path class="st1" d="M273.61,736.75c3.81-9.66,5.49-19.86,7.52-29.96c4.61-22.95,6.23-46.21,4.82-69.51
	c-1.83-30.37,4.24-59.17,14.37-87.51c9.82-27.43,21.3-54.07,34.86-79.87c3.63-6.91,8.18-11.17,16.02-11.98
	c0.81,0.81-0.2,1.58-0.49,2.37c-7.57,20.07-16.06,39.81-20.88,60.82c-2.51,10.94-2.21,11.69,8.9,12.38
	c29.1,1.8,58.21,3.55,87.39,3.6c6.1,0.01,6.32-0.08,8.1-6.25c6.57-22.76,14.35-45.04,25.99-65.8c0.33-0.59,0.62-1.21,0.98-1.79
	c5.79-9.29,2.4-8.09,13.69-5.77c2.84,0.58,2.87,1.48,1.7,3.74c-7.52,14.53-13.75,29.58-17.4,45.58
	c-10.26,44.94-6.3,88.07,16.95,128.59c5.11,8.9,11.61,16.85,18.56,24.32c3.64,3.92,1.62,8.56,3.03,12.69
	c0.47,1.38-1.82,1.31-2.83,1.67c-9.2,3.29-16.68,8.62-21.07,17.58c-4.06,8.29-3.81,16.8-0.8,25.37c3.12,8.87,8.2,16.53,14.41,23.5
	c-37.71,12.41-76.44,16.47-115.97,14.3c-29.44-1.62-58.46-5.59-86.76-14.12C280.93,739.56,277.13,738.54,273.61,736.75z"/>
<path class="st2" d="M524.41,723.46c-1.64,0-3.3-0.18-4.9,0.04c-2.15,0.3-3.86,1.41-4.29,3.75c-0.43,2.31,0.62,4.02,2.59,5.07
	c4.05,2.17,8.41,2.21,12.74,1.24c2.89-0.64,2.99,0.33,2.18,2.63c-1.63,4.64-5.07,6.94-9.68,7.7c-9.04,1.49-16.99-1.34-24.04-6.75
	c-9.38-7.21-15.35-16.86-18.48-28.16c-2.73-9.89,1.96-19.07,11.81-23.84c7.77-3.76,16.13-5.75,24.54-7.29
	c3.97-0.73,6.89-2.4,9.73-5.15c19.49-18.88,39.12-37.6,58.69-56.39c1.76-1.69,3.53-3.43,4.97-5.4c1.15-1.57,1.6-3.57,0.04-5.27
	c-1.47-1.6-3.25-1.04-4.89-0.28c-4.38,2.02-8.03,5.14-11.55,8.33c-1.83,1.66-2.78,1.76-4.44-0.2c-2.99-3.53-6.21-6.88-9.52-10.12
	c-1.47-1.44-1.67-2.34-0.25-3.97c15.28-17.43,32.49-32.57,52.5-44.41c1.36-0.8,2.39-1.35,3.83,0.2
	c10.6,11.4,20.83,23.07,28.08,36.98c10.54,20.23,7.42,39.72-9.08,58.62c-15.1,17.3-33.93,29.71-53.67,40.88
	c-7.92,4.48-16.05,8.6-24.22,12.62c-3.38,1.66-6.12,3.67-8.37,6.79C542.36,719.94,534.66,723.68,524.41,723.46z"/>
<path class="st1" d="M164.99,209.15c-5.76,31.3-31.78,56.18-63.4,60.33c-5.92,0.78-11.97,0.87-17.9-0.56
	c-3.38-0.81-6.45-2.24-8.76-4.9c-2.63-3.03-2.11-6.28,1.47-8.1c2.65-1.34,5.47-2.45,8.32-3.32c13.41-4.08,21.83-13.35,27.1-25.87
	c3.27-7.77,6.01-15.74,8.4-23.82c1.21-4.07,2.75-7.97,5.64-11.18c3.97,3.56,7.98,2.79,12.33,0.54c3.53-1.82,4.41-1.19,5.39,2.64
	c1.14,4.46,4.02,5.78,8.24,3.76c4.31-2.06,4.86-1.99,6.88,2.14C160.27,204.04,162.09,206.98,164.99,209.15z"/>
<path class="st21" d="M164.99,209.15c-2.22,0.55-3.62-0.45-4.56-2.39c-0.71-1.46-1.45-2.9-2.18-4.35c-1.36-2.7-1.82-6.25-6.2-2.1
	c-3.44,3.26-9.48-0.02-9.95-4.8c-0.11-1.06-0.02-2.15-0.02-3.46c-2.89,1.21-5.53,2.52-8.31,3.42c-4.26,1.39-6.01,0.45-7.92-3.74
	c3.2-7.91,10-10.74,17.62-11.86c2.47-0.36,3.22-1.23,3.48-3.28c0.73-5.85-0.12-11.37-3.54-16.31c-1.41-2.04-2.47-4.25-0.23-6.16
	c2.15-1.84,4.39-0.7,6.24,0.88c4.99,4.23,6.75,9.99,7.51,16.19c0.05,0.4,0.09,0.82,0.04,1.22c-0.85,6.33,0.55,11.17,6.01,15.68
	C169.22,193.22,169.44,203.82,164.99,209.15z"/>
</svg>
